<svg width="65" height="64" viewBox="0 0 65 64" fill="none" xmlns="http://www.w3.org/2000/svg">
<rect x="0.5" width="64" height="64" rx="32" fill="url(#paint0_linear_804_5609)"/>
<path fill-rule="evenodd" clip-rule="evenodd" d="M35.6767 12.1184C35.6767 13.1695 35.7558 13.341 36.276 13.4158C36.8202 13.4938 36.8753 13.6478 36.8753 15.0894V16.6772L34.7993 16.5154C32.5174 16.3378 29.2357 16.8689 27.2199 17.742C23.6869 19.2722 20.5836 22.2847 19.0094 25.7111C17.8303 28.2776 17.4299 30.0438 17.4353 32.6552C17.444 37.0407 18.8944 40.5045 22.0904 43.7735C25.5546 47.317 29.5516 48.9005 34.4115 48.6547L36.8753 48.5304V50.2226C36.8753 51.5956 36.7906 51.9315 36.4265 52.0023C36.0983 52.0661 35.9729 52.3797 35.9604 53.1659L35.9431 54.2423H33.5458H31.1486L31.2381 53.0983C31.314 52.1269 31.2523 51.9544 30.8279 51.9544C30.3975 51.9544 29.005 51.6188 26.8464 50.9946C26.3699 50.8568 26.2146 50.9921 25.9272 51.7953C25.7371 52.3269 25.4222 52.7619 25.2278 52.7619C24.7542 52.7619 21.986 51.3383 21.1853 50.6831L20.546 50.1599L21.1685 49.3091L21.791 48.458L20.0096 46.6842L18.2279 44.9101L17.3719 45.6382L16.5158 46.3663L15.7942 45.4929C15.0487 44.5904 13.4359 41.7036 13.4359 41.2716C13.4359 41.137 13.8671 40.8692 14.394 40.6768C15.1739 40.3917 15.3273 40.2189 15.2173 39.7479C15.143 39.4298 14.8636 38.2785 14.5967 37.1898L14.1109 35.2104L13.0004 35.3369C11.943 35.4575 11.8825 35.4249 11.7307 34.6583C11.6431 34.2155 11.5714 33.0113 11.5714 31.9823V30.1116L12.8126 30.1889L14.0541 30.2659L14.5069 28.3922C14.756 27.3616 15.0972 26.1754 15.265 25.7558C15.6373 24.8266 15.551 24.6662 14.4403 24.2194C13.9612 24.0264 13.5254 23.8353 13.4719 23.7944C13.3592 23.7085 15.107 20.5701 15.681 19.8272C16.0569 19.3406 16.0896 19.3422 16.8349 19.8784C17.2568 20.182 17.7133 20.4557 17.8494 20.4872C17.9858 20.5187 18.9655 19.7007 20.0269 18.6695L21.9564 16.7948L21.3009 15.8969C20.9402 15.403 20.708 14.8962 20.785 14.7705C20.9759 14.458 24.682 12.3957 25.06 12.3911C25.2273 12.3892 25.553 12.8645 25.7839 13.4478L26.2037 14.5078L28.0094 13.9861C29.0026 13.6989 30.2052 13.4642 30.6817 13.4642C31.545 13.4642 31.5482 13.4591 31.5482 12.1071V10.75L33.6124 10.8286L35.6767 10.9072V12.1184ZM36.7328 20.3367C42.6513 21.8944 46.6093 27.5172 46.0771 33.6105C45.8577 36.1239 45.1758 37.9582 43.698 40.0109C39.2251 46.2223 30.3445 46.9267 24.9702 41.4958C21.9218 38.4153 20.6134 34.1741 21.4546 30.0982C22.9097 23.0472 29.9474 18.5506 36.7328 20.3367ZM31.4126 27.4243C27.8405 29.0643 27.0071 33.709 29.7817 36.5131C32.583 39.3436 37.094 38.5151 38.7675 34.8626C40.8744 30.2642 35.9889 25.3235 31.4126 27.4243Z" fill="white"/>
<defs>
<linearGradient id="paint0_linear_804_5609" x1="32.5" y1="0" x2="32.5" y2="64" gradientUnits="userSpaceOnUse">
<stop stop-color="#0856BA"/>
<stop offset="1" stop-color="#0B3263"/>
</linearGradient>
</defs>
</svg>
